<?xml version="1.0" ?><svg style="enable-background:new 0 0 48 48;" version="1.1" viewBox="0 0 48 48" xml:space="preserve" xmlns="http://www.w3.org/2000/svg" xmlns:xlink="http://www.w3.org/1999/xlink"><style type="text/css">
	.st0{display:none;}
	.st1{fill:none;stroke:#303030;stroke-width:0.7;stroke-linecap:round;stroke-linejoin:round;stroke-miterlimit:10;}
	.st2{fill:#303030;}
</style><g class="st0" id="Padding__x26__Artboard"/><g id="Icons"><g><path class="st1" d="M19.975,38.815c1.28,0.34,2.63,0.53,4.02,0.53c8.48,0,15.35-6.87,15.35-15.34c0-8.48-6.87-15.35-15.35-15.35    c-8.47,0-15.34,6.87-15.34,15.35c0,6.39,3.91,11.87,9.47,14.17"/><path class="st1" d="M21.89437,11.42093c0.53679-0.09549,1.07644-0.1576,1.61342-0.18429"/><path class="st1" d="M15.4695,14.42807c1.44125-1.2413,3.22635-2.17318,5.10565-2.70387"/><path class="st1" d="M19.975,38.815c1.18-2.12,2.03-6.64,2.6-8.58c0.02-0.01,0.02-0.01,0.04-0.01c0.97,1.25,2.28,1.63,3.78,1.47    c2.26-0.23,3.88-1.45,4.99-3.37c1.12-1.92,1.52-4.02,1.3-6.2c-0.24-2.29-1.45-4.05-3.37-5.29c-1.72-1.12-3.64-1.46-5.65-1.32    c-1.55,0.11-3.01,0.49-4.35,1.3c-2.23,1.34-3.61,3.28-3.99,5.87c-0.2,1.38-0.01,2.73,0.64,3.99    c0.41,0.79,1.01,1.39,1.83007,1.76003c0.2151,0.10037,0.49967,0.17663,0.66786-0.04591    c0.06513-0.08618,0.09903-0.19131,0.13182-0.29424c0.2524-0.79243,0.35379-1.44631-0.20975-2.13989    c-0.57-0.69-0.62-1.59-0.56-2.46c0.16-2.07,1.07-3.72,2.85-4.83c1.33-0.84,2.8-1.08,4.34-0.89c0.63,0.08,1.27,0.23,1.84,0.48    c1.61,0.71,2.49,2.02,2.65,3.75c0.16,1.75-0.12,3.46-0.89,5.07c-0.32,0.68-0.77,1.3-1.36,1.76c-0.72,0.55-1.51,0.8-2.42,0.55    c-1.04-0.27-1.65-1.36-1.38-2.41c0.26-1.05,0.62-2.08,0.88-3.13c0.13-0.55,0.23-1.13,0.2-1.69c-0.07-1.37-1.35-2.07-2.59-1.46    c-0.88,0.43-1.31,1.2-1.53,2.11c-0.23,0.97-0.12,1.92,0.2,2.86c0.05,0.14,0.07,0.3,0.03,0.45    c-0.20673,0.89585-0.41942,1.79032-0.63169,2.68487c-0.26104,1.10007-0.52293,2.19993-0.78308,3.30021    c-0.2382,1.00745-0.4757,2.01508-0.70658,3.02424c-0.23132,1.01111-0.31039,2.021-0.39865,3.05069"/></g></g></svg>